<svg width="79" height="79" viewBox="0 0 79 79" fill="none" xmlns="http://www.w3.org/2000/svg">
<path d="M39.5 0L39.5076 39.4611L54.6161 3.00675L39.522 39.4672L67.4306 11.5693L39.5328 39.478L75.9932 24.3839L39.5389 39.4924L79 39.5L39.5389 39.5076L75.9932 54.6161L39.5328 39.522L67.4306 67.4306L39.522 39.5328L54.6161 75.9932L39.5076 39.5389L39.5 79L39.4924 39.5389L24.3839 75.9932L39.478 39.5328L11.5693 67.4306L39.4672 39.522L3.00675 54.6161L39.4611 39.5076L0 39.5L39.4611 39.4924L3.00675 24.3839L39.4672 39.478L11.5693 11.5693L39.478 39.4672L24.3839 3.00675L39.4924 39.4611L39.5 0Z" fill="#F0C3D2" stroke="#4F4F4F" stroke-width="4"/>
</svg>
