<svg
  width="27"
  height="28"
  viewBox="0 0 27 28"
  fill="none"
  xmlns="http://www.w3.org/2000/svg"
>
<path
    d="M13.4907 0C6.23888 0 0.305557 6.26209 0.305557 13.9746C0.305557 20.948 5.13133 26.7359 11.4338 27.7819V18.0192H8.08481V13.9746H11.4338V10.8924C11.4338 7.39177 13.3984 5.46712 16.4178 5.46712C17.855 5.46712 19.3581 5.73211 19.3581 5.73211V9.17696H17.6968C16.0618 9.17696 15.5476 10.2509 15.5476 11.3526V13.9746H19.2131L18.6198 18.0192H15.5476V27.7819C18.6546 27.2629 21.4838 25.586 23.5245 23.054C25.5652 20.5221 26.6829 17.3018 26.6759 13.9746C26.6759 6.26209 20.7426 0 13.4907 0Z"
    fill="white"
  />
</svg>
