<svg xmlns="http://www.w3.org/2000/svg" width="27" height="28" fill="none" viewBox="0 0 27 28"><path fill="#fff" d="M13.8155 0.648193C6.53029 0.648193 0.629626 6.88968 0.629626 14.5956C0.628038 17.5234 1.49804 20.3774 3.11623 22.7527C4.73441 25.1281 7.0186 26.9041 9.64479 27.829C10.3041 27.9503 10.552 27.5319 10.552 27.1651C10.552 26.8345 10.5348 25.7369 10.5348 24.5681C7.22255 25.2138 6.36547 23.7145 6.10175 22.9292C5.95275 22.5276 5.3106 21.2904 4.7502 20.9585C4.2887 20.6977 3.62941 20.0519 4.73306 20.0352C5.7721 20.017 6.51315 21.0463 6.76104 21.4648C7.94777 23.5736 9.84257 22.9809 10.6008 22.6154C10.7168 21.7088 11.0623 21.0993 11.442 20.7507C8.50817 20.402 5.44246 19.1983 5.44246 13.8634C5.44246 12.3459 5.95275 11.092 6.79401 10.1143C6.66215 9.76564 6.20064 8.33603 6.92587 6.41825C6.92587 6.41825 8.02952 6.05283 10.552 7.84926C11.6254 7.53414 12.7344 7.37553 13.8484 7.37784C14.9692 7.37784 16.09 7.53405 17.1449 7.84787C19.6673 6.0347 20.771 6.41965 20.771 6.41965C21.4962 8.33742 21.0347 9.76704 20.9029 10.1157C21.7428 11.092 22.2544 12.3292 22.2544 13.8634C22.2544 19.2164 19.1729 20.402 16.2377 20.7507C16.7164 21.1858 17.1291 22.0227 17.1291 23.3309C17.1291 25.1957 17.1119 26.6951 17.1119 27.1665C17.1119 27.5319 17.3598 27.9671 18.0191 27.8276C20.6363 26.8926 22.9104 25.1131 24.5215 22.7395C26.1325 20.3658 26.9993 17.5176 27 14.5956C27 6.88968 21.0993 0.648193 13.8141 0.648193H13.8155Z"/></svg>