<svg width="216" height="216" viewBox="0 0 216 216" fill="none" xmlns="http://www.w3.org/2000/svg">
<path fill-rule="evenodd" clip-rule="evenodd" d="M215.992 107.992C215.992 107.992 217.273 58.366 187.453 28.5466C157.634 -1.27229 108.008 0.00800669 108.008 0.00800669C108.008 0.00800669 108.001 0.263608 108 0.749008C108 0.544008 107.998 0.380007 107.997 0.258907C107.995 0.093307 107.992 0.00800669 107.992 0.00800669C107.992 0.00800669 58.366 -1.27229 28.5466 28.5466C-1.27229 58.366 0.00800669 107.992 0.00800669 107.992C0.00800669 107.992 49.6345 109.272 79.453 79.453C106.709 52.1981 107.983 8.39511 108 1.06441C108.018 8.39511 109.292 52.1981 136.547 79.453C166.366 109.272 215.992 107.992 215.992 107.992ZM28.5466 187.453C-1.27229 157.634 0.00800669 108.008 0.00800669 108.008C0.00800669 108.008 49.6345 106.728 79.453 136.547C106.709 163.802 107.983 207.605 108 214.936C108.018 207.605 109.292 163.802 136.547 136.547C166.366 106.728 215.992 108.008 215.992 108.008C215.992 108.008 217.273 157.634 187.453 187.453C157.634 217.272 108.008 215.992 108.008 215.992C108.008 215.992 108.001 215.736 108 215.251C107.999 215.736 107.992 215.992 107.992 215.992C107.992 215.992 58.366 217.272 28.5466 187.453Z" fill="#8F847F"/>
</svg>
