<svg
  width="25"
  height="27"
  viewBox="0 0 25 27"
  fill="none"
  xmlns="http://www.w3.org/2000/svg"
>
<path
    d="M12.6866 8.98579C10.4925 8.98579 8.70196 10.8999 8.70196 13.2453C8.70196 15.5908 10.4925 17.5048 12.6866 17.5048C14.8807 17.5048 16.6713 15.5908 16.6713 13.2453C16.6713 10.8999 14.8807 8.98579 12.6866 8.98579ZM24.6376 13.2453C24.6376 11.4814 24.6525 9.73352 24.5598 7.97283C24.4672 5.92774 24.0307 4.11273 22.6318 2.61726C21.2298 1.1186 19.5349 0.655259 17.6218 0.5562C15.9718 0.457141 14.3367 0.473118 12.6896 0.473118C11.0395 0.473118 9.40443 0.457141 7.75736 0.5562C5.84425 0.655259 4.14637 1.12179 2.74741 2.61726C1.34546 4.11593 0.912017 5.92774 0.819351 7.97283C0.726685 9.73672 0.741631 11.4846 0.741631 13.2453C0.741631 15.006 0.726685 16.7571 0.819351 18.5178C0.912017 20.5629 1.34845 22.3779 2.74741 23.8734C4.14936 25.372 5.84425 25.8354 7.75736 25.9344C9.40742 26.0335 11.0425 26.0175 12.6896 26.0175C14.3396 26.0175 15.9748 26.0335 17.6218 25.9344C19.5349 25.8354 21.2328 25.3688 22.6318 23.8734C24.0337 22.3747 24.4672 20.5629 24.5598 18.5178C24.6555 16.7571 24.6376 15.0092 24.6376 13.2453ZM12.6866 19.7992C9.29383 19.7992 6.55569 16.8721 6.55569 13.2453C6.55569 9.61848 9.29383 6.69146 12.6866 6.69146C16.0794 6.69146 18.8175 9.61848 18.8175 13.2453C18.8175 16.8721 16.0794 19.7992 12.6866 19.7992ZM19.0686 7.95366C18.2765 7.95366 17.6368 7.26983 17.6368 6.42304C17.6368 5.57625 18.2765 4.89242 19.0686 4.89242C19.8608 4.89242 20.5005 5.57625 20.5005 6.42304C20.5007 6.62411 20.4638 6.82326 20.3919 7.00908C20.3201 7.1949 20.2146 7.36373 20.0816 7.50591C19.9486 7.64809 19.7907 7.76083 19.6168 7.83766C19.443 7.91449 19.2567 7.95391 19.0686 7.95366Z"
    fill="white"
  />
</svg>
