<svg xmlns="http://www.w3.org/2000/svg" width="79" height="79" fill="none" viewBox="0 0 79 79"><path fill="#4F4F4F" fill-rule="evenodd" d="M65.2565 0H61.1432L79 17.8569V13.7433L65.2565 0ZM79 3.81243L75.1876 0H79V3.81243ZM79 27.7876L51.212 0H47.0987L79 31.9013V27.7876ZM79 41.8321L37.1676 0H33.0543L79 45.9457V41.8321ZM79 55.8765L23.1231 0H19.0097L79 59.9901V55.8765ZM79 69.921L9.07882 0H4.96527L79 74.0346V69.921ZM74.0342 79L0 4.96552V9.0791L69.921 79H74.0342ZM59.9898 79L0 19.01V23.1235L55.8765 79H59.9898ZM45.9453 79L0 33.0543V37.1679L41.8321 79H45.9453ZM31.9009 79L0 47.0987V51.2124L27.7876 79H31.9009ZM17.8566 79L0 61.1432V65.2568L13.7431 79H17.8566ZM3.81215 79L0 75.1876V79H3.81215Z" clip-rule="evenodd"/></svg>