<svg xmlns="http://www.w3.org/2000/svg" width="27" height="24" fill="none" viewBox="0 0 27 24"><path fill="#fff" d="M26.3704 3.28479C25.3831 3.74676 24.3362 4.05024 23.2642 4.1852C24.3937 3.46971 25.2388 2.34434 25.642 1.01872C24.5812 1.6865 23.4182 2.15449 22.2073 2.40765C21.3931 1.48614 20.3138 0.874986 19.1374 0.669207C17.9609 0.463429 16.7531 0.674553 15.7017 1.26976C14.6504 1.86496 13.8144 2.81089 13.3238 3.9605C12.8331 5.11011 12.7153 6.39897 12.9885 7.62673C10.8371 7.51287 8.7323 6.92163 6.81089 5.89141C4.88948 4.86119 3.1944 3.41502 1.83573 1.64681C1.35486 2.52047 1.10216 3.51363 1.10351 4.52456C1.10351 6.50875 2.05954 8.26167 3.50975 9.28797C2.65077 9.25932 1.8107 9.01394 1.05952 8.5723V8.64209C1.05948 9.96379 1.49166 11.2448 2.28274 12.2679C3.07382 13.291 4.17511 13.9931 5.39982 14.2553C4.60245 14.4841 3.76628 14.5178 2.95476 14.3538C3.30008 15.4915 3.97317 16.4864 4.87976 17.1993C5.78635 17.9121 6.88103 18.3071 8.01047 18.329C6.88801 19.2615 5.60278 19.9508 4.22827 20.3575C2.85377 20.7642 1.41695 20.8802 0 20.6991C2.47316 22.3814 5.35209 23.2745 8.29249 23.2717C18.2461 23.2717 23.6873 14.5508 23.6873 6.98769C23.6873 6.74138 23.6821 6.49233 23.6718 6.24738C24.7305 5.43778 25.6443 4.43365 26.3704 3.28479Z"/></svg>