<svg width="171" height="25" viewBox="0 0 171 25" fill="none" xmlns="http://www.w3.org/2000/svg">
<g filter="url(#filter0_d_34_5)">
<path d="M9.09867 5.344H12.1227V16H9.09867V5.344ZM4.42667 4H16.7947V6.672H4.42667V4ZM20.9244 16.256C19.8364 16.256 18.8604 16.0533 17.9964 15.648C17.1431 15.2427 16.4711 14.6773 15.9804 13.952C15.4898 13.2267 15.2444 12.3787 15.2444 11.408C15.2444 10.4587 15.4791 9.62667 15.9484 8.912C16.4178 8.19733 17.0631 7.63733 17.8844 7.232C18.7164 6.82667 19.6551 6.624 20.7004 6.624C21.7671 6.624 22.6844 6.85867 23.4524 7.328C24.2204 7.79733 24.8124 8.45867 25.2284 9.312C25.6444 10.1653 25.8524 11.168 25.8524 12.32H17.6284V10.448H24.2204L23.1484 11.12C23.1164 10.6187 22.9938 10.1973 22.7804 9.856C22.5778 9.504 22.3058 9.23733 21.9644 9.056C21.6231 8.864 21.2178 8.768 20.7484 8.768C20.2364 8.768 19.7938 8.86933 19.4204 9.072C19.0471 9.27467 18.7538 9.55733 18.5404 9.92C18.3378 10.2827 18.2364 10.704 18.2364 11.184C18.2364 11.792 18.3698 12.3093 18.6364 12.736C18.9138 13.1627 19.3084 13.488 19.8204 13.712C20.3431 13.936 20.9778 14.048 21.7244 14.048C22.4071 14.048 23.0898 13.9573 23.7724 13.776C24.4551 13.584 25.0684 13.3173 25.6124 12.976V14.912C24.9938 15.3387 24.2844 15.6693 23.4844 15.904C22.6951 16.1387 21.8418 16.256 20.9244 16.256ZM30.293 13.584L29.477 13.312L34.709 6.88H37.893L30.005 16H27.333V3.68H30.293V13.584ZM32.117 11.536L34.325 9.92L38.133 16H34.757L32.117 11.536ZM41.9493 13.584L41.1333 13.312L46.3653 6.88H49.5493L41.6613 16H38.9893V3.68H41.9493V13.584ZM43.7733 11.536L45.9813 9.92L49.7893 16H46.4133L43.7733 11.536ZM70.9368 10.22C70.8035 11.4067 70.3835 12.46 69.6768 13.38C68.9701 14.2867 68.0435 14.9933 66.8968 15.5C65.7635 16.0067 64.4635 16.26 62.9968 16.26C61.3435 16.26 59.8901 15.9333 58.6368 15.28C57.3968 14.6267 56.4301 13.72 55.7368 12.56C55.0435 11.3867 54.6968 10.0333 54.6968 8.5C54.6968 6.95333 55.0435 5.6 55.7368 4.44C56.4301 3.28 57.3968 2.37333 58.6368 1.72C59.8901 1.06667 61.3435 0.74 62.9968 0.74C64.4635 0.74 65.7635 0.993333 66.8968 1.5C68.0435 2.00667 68.9701 2.71333 69.6768 3.62C70.3835 4.51333 70.8035 5.56 70.9368 6.76H69.0368C68.8768 5.88 68.5301 5.12 67.9968 4.48C67.4635 3.82667 66.7701 3.32667 65.9168 2.98C65.0635 2.62 64.0835 2.44 62.9768 2.44C61.6835 2.44 60.5568 2.68667 59.5968 3.18C58.6501 3.67333 57.9168 4.37333 57.3968 5.28C56.8768 6.18667 56.6168 7.26 56.6168 8.5C56.6168 9.72667 56.8768 10.7933 57.3968 11.7C57.9168 12.6067 58.6501 13.3133 59.5968 13.82C60.5568 14.3133 61.6835 14.56 62.9768 14.56C64.0835 14.56 65.0635 14.3867 65.9168 14.04C66.7701 13.68 67.4635 13.18 67.9968 12.54C68.5301 11.8867 68.8768 11.1133 69.0368 10.22H70.9368ZM79.2637 16.26C77.9437 16.26 76.777 16.0133 75.7637 15.52C74.7637 15.0267 73.9837 14.3333 73.4237 13.44C72.8637 12.5467 72.5837 11.52 72.5837 10.36C72.5837 9.18667 72.8637 8.16 73.4237 7.28C73.9837 6.4 74.7637 5.71333 75.7637 5.22C76.777 4.72667 77.9437 4.48 79.2637 4.48C80.597 4.48 81.7637 4.72667 82.7637 5.22C83.7637 5.71333 84.5437 6.4 85.1037 7.28C85.677 8.16 85.9637 9.18667 85.9637 10.36C85.9637 11.52 85.677 12.5467 85.1037 13.44C84.5437 14.3333 83.7637 15.0267 82.7637 15.52C81.7637 16.0133 80.597 16.26 79.2637 16.26ZM79.2637 14.72C80.2503 14.72 81.1037 14.5467 81.8237 14.2C82.5437 13.84 83.097 13.3333 83.4837 12.68C83.8837 12.0267 84.0837 11.2533 84.0837 10.36C84.0837 9.48 83.8837 8.71333 83.4837 8.06C83.097 7.40667 82.5437 6.9 81.8237 6.54C81.1037 6.18 80.2503 6 79.2637 6C78.2903 6 77.437 6.18 76.7037 6.54C75.9837 6.9 75.4303 7.40667 75.0437 8.06C74.657 8.71333 74.4637 9.48 74.4637 10.36C74.4637 11.2533 74.657 12.0267 75.0437 12.68C75.4303 13.3333 75.9837 13.84 76.7037 14.2C77.437 14.5467 78.2903 14.72 79.2637 14.72ZM88.2637 0.599999H90.1037V16H88.2637V0.599999ZM93.0879 0.599999H94.9279V16H93.0879V0.599999ZM103.852 16.26C102.559 16.26 101.412 16.0133 100.412 15.52C99.4254 15.0133 98.6454 14.32 98.0721 13.44C97.5121 12.5467 97.2321 11.52 97.2321 10.36C97.2321 9.18667 97.4988 8.16 98.0321 7.28C98.5654 6.4 99.3054 5.71333 100.252 5.22C101.199 4.72667 102.285 4.48 103.512 4.48C104.725 4.48 105.785 4.74667 106.692 5.28C107.599 5.81333 108.299 6.56667 108.792 7.54C109.299 8.5 109.552 9.62 109.552 10.9H98.6321V9.44H108.772L107.692 10.1C107.652 9.26 107.452 8.53333 107.092 7.92C106.732 7.30667 106.245 6.83333 105.632 6.5C105.019 6.16667 104.305 6 103.492 6C102.612 6 101.845 6.18 101.192 6.54C100.539 6.88667 100.025 7.38 99.6521 8.02C99.2921 8.66 99.1121 9.41333 99.1121 10.28C99.1121 11.1867 99.3188 11.9733 99.7321 12.64C100.145 13.3067 100.725 13.82 101.472 14.18C102.219 14.54 103.099 14.72 104.112 14.72C105.032 14.72 105.932 14.5667 106.812 14.26C107.705 13.9533 108.505 13.5333 109.212 13V14.44C108.519 15 107.692 15.4467 106.732 15.78C105.772 16.1 104.812 16.26 103.852 16.26ZM123.798 11.72C123.651 12.6133 123.285 13.4 122.698 14.08C122.125 14.76 121.391 15.2933 120.498 15.68C119.605 16.0667 118.618 16.26 117.538 16.26C116.285 16.26 115.178 16.0133 114.218 15.52C113.258 15.0133 112.505 14.32 111.958 13.44C111.425 12.5467 111.158 11.52 111.158 10.36C111.158 9.2 111.425 8.18 111.958 7.3C112.505 6.40667 113.258 5.71333 114.218 5.22C115.178 4.72667 116.285 4.48 117.538 4.48C118.618 4.48 119.605 4.67333 120.498 5.06C121.391 5.43333 122.125 5.96 122.698 6.64C123.285 7.32 123.651 8.11333 123.798 9.02H121.898C121.698 8.08667 121.198 7.35333 120.398 6.82C119.611 6.27333 118.658 6 117.538 6C116.631 6 115.838 6.18 115.158 6.54C114.491 6.9 113.971 7.40667 113.598 8.06C113.225 8.7 113.038 9.46667 113.038 10.36C113.038 11.2533 113.225 12.0267 113.598 12.68C113.971 13.3333 114.491 13.84 115.158 14.2C115.838 14.5467 116.631 14.72 117.538 14.72C118.671 14.72 119.631 14.4467 120.418 13.9C121.218 13.3533 121.711 12.6267 121.898 11.72H123.798ZM124.441 6.22V5.34L126.921 4.88L127.661 1.82H128.761V4.74H134.241V6.22H128.761V11.94C128.761 12.9533 128.981 13.6667 129.421 14.08C129.875 14.48 130.568 14.68 131.501 14.68C132.115 14.68 132.648 14.6067 133.101 14.46C133.568 14.3133 134.021 14.1 134.461 13.82V15.44C134.141 15.64 133.668 15.8267 133.041 16C132.428 16.1733 131.788 16.26 131.121 16.26C130.108 16.26 129.288 16.0867 128.661 15.74C128.048 15.38 127.601 14.9 127.321 14.3C127.055 13.6867 126.921 12.9933 126.921 12.22V6.22H124.441ZM136.447 4.7L137.367 4.86L138.287 4.7V16H136.447V4.7ZM137.347 3.04C136.974 3.04 136.654 2.92667 136.387 2.7C136.134 2.46 136.007 2.16 136.007 1.8C136.007 1.45333 136.134 1.16667 136.387 0.94C136.654 0.699999 136.974 0.579999 137.347 0.579999C137.747 0.579999 138.074 0.699999 138.327 0.94C138.581 1.16667 138.707 1.45333 138.707 1.8C138.707 2.16 138.581 2.46 138.327 2.7C138.074 2.92667 137.747 3.04 137.347 3.04ZM147.051 15.14H146.331L151.311 4.74H153.271L147.671 16H145.631L140.011 4.74H142.051L147.051 15.14ZM160.376 16.26C159.082 16.26 157.936 16.0133 156.936 15.52C155.949 15.0133 155.169 14.32 154.596 13.44C154.036 12.5467 153.756 11.52 153.756 10.36C153.756 9.18667 154.022 8.16 154.556 7.28C155.089 6.4 155.829 5.71333 156.776 5.22C157.722 4.72667 158.809 4.48 160.036 4.48C161.249 4.48 162.309 4.74667 163.216 5.28C164.122 5.81333 164.822 6.56667 165.316 7.54C165.822 8.5 166.076 9.62 166.076 10.9H155.156V9.44H165.296L164.216 10.1C164.176 9.26 163.976 8.53333 163.616 7.92C163.256 7.30667 162.769 6.83333 162.156 6.5C161.542 6.16667 160.829 6 160.016 6C159.136 6 158.369 6.18 157.716 6.54C157.062 6.88667 156.549 7.38 156.176 8.02C155.816 8.66 155.636 9.41333 155.636 10.28C155.636 11.1867 155.842 11.9733 156.256 12.64C156.669 13.3067 157.249 13.82 157.996 14.18C158.742 14.54 159.622 14.72 160.636 14.72C161.556 14.72 162.456 14.5667 163.336 14.26C164.229 13.9533 165.029 13.5333 165.736 13V14.44C165.042 15 164.216 15.4467 163.256 15.78C162.296 16.1 161.336 16.26 160.376 16.26Z" fill="white"/>
</g>
<defs>
<filter id="filter0_d_34_5" x="0.426697" y="0.579998" width="169.649" height="23.68" filterUnits="userSpaceOnUse" color-interpolation-filters="sRGB">
<feFlood flood-opacity="0" result="BackgroundImageFix"/>
<feColorMatrix in="SourceAlpha" type="matrix" values="0 0 0 0 0 0 0 0 0 0 0 0 0 0 0 0 0 0 127 0" result="hardAlpha"/>
<feOffset dy="4"/>
<feGaussianBlur stdDeviation="2"/>
<feComposite in2="hardAlpha" operator="out"/>
<feColorMatrix type="matrix" values="0 0 0 0 0 0 0 0 0 0 0 0 0 0 0 0 0 0 0.25 0"/>
<feBlend mode="normal" in2="BackgroundImageFix" result="effect1_dropShadow_34_5"/>
<feBlend mode="normal" in="SourceGraphic" in2="effect1_dropShadow_34_5" result="shape"/>
</filter>
</defs>
</svg>
